<svg width="40" height="40" viewBox="0 0 40 40" fill="none" xmlns="http://www.w3.org/2000/svg">
<path fill-rule="evenodd" clip-rule="evenodd" d="M12.5 8.75C12.5 5.98858 14.7386 3.75 17.5 3.75H22.5C25.2614 3.75 27.5 5.98858 27.5 8.75V9.09163C29.0541 9.23389 30.5957 9.41994 32.1234 9.64853C34.5468 10.0111 36.25 12.1194 36.25 14.5095V19.5648C36.25 21.5834 35.0273 23.4854 33.0229 24.1518C28.9277 25.5133 24.5486 26.25 20.0001 26.25C15.4514 26.25 11.0724 25.5133 6.97711 24.1518C4.97273 23.4854 3.75 21.5833 3.75 19.5648V14.5095C3.75 12.1194 5.45318 10.0111 7.8766 9.64853C9.40434 9.41994 10.9459 9.2339 12.5 9.09163V8.75ZM25 8.75V8.90137C23.3461 8.80094 21.6789 8.75 20 8.75C18.3211 8.75 16.6539 8.80094 15 8.90137V8.75C15 7.36929 16.1193 6.25 17.5 6.25H22.5C23.8807 6.25 25 7.36929 25 8.75ZM20 22.5C20.6904 22.5 21.25 21.9404 21.25 21.25C21.25 20.5596 20.6904 20 20 20C19.3096 20 18.75 20.5596 18.75 21.25C18.75 21.9404 19.3096 22.5 20 22.5Z" fill="#9EFF00"/>
<path d="M5 30.6666V26.0065C5.37173 26.2104 5.76829 26.3844 6.18839 26.5241C10.5348 27.9691 15.18 28.75 20.0001 28.75C24.8201 28.75 29.4652 27.9691 33.8116 26.5241C34.2317 26.3845 34.6283 26.2105 35 26.0066V30.6666C35 33.0865 33.2546 35.2125 30.7948 35.5391C27.2626 36.008 23.6592 36.25 20 36.25C16.3408 36.25 12.7374 36.008 9.20522 35.5391C6.7454 35.2125 5 33.0865 5 30.6666Z" fill="#9EFF00"/>
</svg>
