<svg width="41" height="40" viewBox="0 0 41 40" fill="none" xmlns="http://www.w3.org/2000/svg">
<path fill-rule="evenodd" clip-rule="evenodd" d="M4.41797 10C4.41797 7.23858 6.65655 5 9.41797 5H31.918C34.6794 5 36.918 7.23858 36.918 10V30C36.918 32.7614 34.6794 35 31.918 35H9.41797C6.65655 35 4.41797 32.7614 4.41797 30V10ZM11.0341 11.6161C11.5222 11.128 12.3137 11.128 12.8019 11.6161L16.5519 15.3661C17.04 15.8543 17.04 16.6457 16.5519 17.1339L12.8019 20.8839C12.3137 21.372 11.5222 21.372 11.0341 20.8839C10.5459 20.3957 10.5459 19.6043 11.0341 19.1161L13.9002 16.25L11.0341 13.3839C10.5459 12.8957 10.5459 12.1043 11.0341 11.6161ZM18.168 18.75C17.4776 18.75 16.918 19.3096 16.918 20C16.918 20.6904 17.4776 21.25 18.168 21.25H23.168C23.8583 21.25 24.418 20.6904 24.418 20C24.418 19.3096 23.8583 18.75 23.168 18.75H18.168Z" fill="#9EFF00"/>
</svg>
