<svg width="41" height="40" viewBox="0 0 41 40" fill="none" xmlns="http://www.w3.org/2000/svg">
<path d="M26.3803 18.5C27.3208 18.5 28.0345 17.6344 27.6549 16.7739C26.4145 13.9624 23.6024 12 20.332 12C20.0396 12 19.7508 12.0157 19.4664 12.0463C18.5306 12.147 18.137 13.1981 18.6076 14.0132L20.7651 17.75C21.033 18.2141 21.5282 18.5 22.0641 18.5L26.3803 18.5Z" fill="#9EFF00"/>
<path d="M16.011 15.5157C15.5403 14.7004 14.4326 14.5156 13.8759 15.2748C12.9052 16.5988 12.332 18.2325 12.332 20C12.332 21.7676 12.9053 23.4013 13.876 24.7253C14.4327 25.4845 15.5403 25.2997 16.0111 24.4844L18.1671 20.7501C18.435 20.286 18.435 19.7142 18.1671 19.2501L16.011 15.5157Z" fill="#9EFF00"/>
<path d="M18.6077 25.9868C18.1371 26.8019 18.5308 27.8531 19.4666 27.9537C19.7509 27.9843 20.0396 28 20.332 28C23.6024 28 26.4145 26.0376 27.6549 23.2261C28.0345 22.3656 27.3209 21.5 26.3804 21.5H22.0642C21.5283 21.5 21.0332 21.7859 20.7652 22.25L18.6077 25.9868Z" fill="#9EFF00"/>
<path fill-rule="evenodd" clip-rule="evenodd" d="M28.5911 8.69449L29.8809 6.46055C30.2951 5.74312 30.0493 4.82573 29.3318 4.41152C28.6144 3.9973 27.697 4.24312 27.2828 4.96055L25.9943 7.1923C24.6984 6.61853 23.299 6.23568 21.832 6.07942V3.5C21.832 2.67157 21.1605 2 20.332 2C19.5036 2 18.832 2.67157 18.832 3.5V6.07942C17.365 6.23568 15.9657 6.61854 14.6698 7.19231L13.3813 4.9606C12.9671 4.24316 12.0497 3.99735 11.3322 4.41156C10.6148 4.82577 10.369 5.74316 10.7832 6.4606L12.0729 8.6945C10.9077 9.5472 9.87922 10.5757 9.02652 11.7409L6.7922 10.4509C6.07476 10.0367 5.15738 10.2825 4.74316 11C4.32895 11.7174 4.57476 12.6348 5.2922 13.049L7.52434 14.3377C6.95056 15.6337 6.56771 17.033 6.41145 18.5H3.83203C3.0036 18.5 2.33203 19.1716 2.33203 20C2.33203 20.8284 3.0036 21.5 3.83203 21.5H6.41145C6.56771 22.967 6.95056 24.3663 7.52432 25.6622L5.2922 26.9509C4.57476 27.3651 4.32895 28.2825 4.74316 29C5.15738 29.7174 6.07476 29.9632 6.7922 29.549L9.0265 28.259C9.87913 29.4242 10.9075 30.4526 12.0727 31.3053L10.7828 33.5394C10.3686 34.2568 10.6144 35.1742 11.3318 35.5884C12.0493 36.0027 12.9666 35.7568 13.3809 35.0394L14.6694 32.8075C15.9655 33.3814 17.3649 33.7643 18.832 33.9206V36.5C18.832 37.3284 19.5036 38 20.332 38C21.1605 38 21.832 37.3284 21.832 36.5V33.9206C23.2992 33.7643 24.6986 33.3814 25.9946 32.8076L27.2832 35.0394C27.6974 35.7569 28.6148 36.0027 29.3322 35.5885C30.0497 35.1743 30.2955 34.2569 29.8813 33.5394L28.5914 31.3053C29.7565 30.4527 30.7849 29.4243 31.6375 28.2592L33.8715 29.549C34.589 29.9632 35.5064 29.7174 35.9206 29C36.3348 28.2825 36.089 27.3651 35.3715 26.9509L33.1397 25.6624C33.7135 24.3664 34.0963 22.9671 34.2526 21.5H36.832C37.6605 21.5 38.332 20.8284 38.332 20C38.332 19.1716 37.6605 18.5 36.832 18.5H34.2526C34.0963 17.0329 33.7135 15.6336 33.1397 14.3376L35.3715 13.049C36.089 12.6348 36.3348 11.7174 35.9206 11C35.5064 10.2825 34.589 10.0367 33.8715 10.4509L31.6374 11.7408C30.7848 10.5756 29.7563 9.54715 28.5911 8.69449ZM20.332 9C18.3544 9 16.4987 9.52187 14.8951 10.4354C14.8746 10.4486 14.8536 10.4614 14.8322 10.4737C14.8116 10.4857 14.7908 10.497 14.7698 10.5079C13.1454 11.4618 11.7875 12.8208 10.835 14.4461C10.8255 14.4642 10.8156 14.4821 10.8053 14.5C10.7946 14.5185 10.7836 14.5367 10.7722 14.5547C9.85573 16.1602 9.33203 18.0189 9.33203 20C9.33203 21.9808 9.85561 23.8394 10.7719 25.4448C10.7834 25.4629 10.7945 25.4813 10.8053 25.5C10.8157 25.518 10.8257 25.5361 10.8353 25.5543C11.7884 27.1805 13.1473 28.5401 14.773 29.494C14.7928 29.5043 14.8124 29.515 14.8318 29.5263C14.852 29.5379 14.8719 29.55 14.8913 29.5625C16.4958 30.4773 18.3529 31 20.332 31C22.3115 31 24.1688 30.4772 25.7734 29.5621C25.7927 29.5498 25.8123 29.5378 25.8322 29.5263C25.8515 29.5152 25.8709 29.5046 25.8904 29.4944C27.5147 28.5414 28.8727 27.1835 29.8259 25.5593C29.8362 25.5394 29.8471 25.5196 29.8584 25.5C29.8702 25.4796 29.8823 25.4596 29.8949 25.44C30.8095 23.8357 31.332 21.9789 31.332 20C31.332 18.0209 30.8094 16.1639 29.8946 14.5595C29.8821 14.54 29.8701 14.5202 29.8584 14.5C29.8472 14.4805 29.8364 14.4609 29.8261 14.4411C28.8736 12.8178 27.5166 11.4605 25.8936 10.5075C25.8729 10.4968 25.8523 10.4855 25.8318 10.4737C25.8107 10.4615 25.7899 10.4488 25.7696 10.4358C24.1658 9.522 22.3099 9 20.332 9Z" fill="#9EFF00"/>
</svg>
