<svg width="41" height="40" viewBox="0 0 41 40" fill="none" xmlns="http://www.w3.org/2000/svg">
<g clip-path="url(#clip0_83_29827)">
<g clip-path="url(#clip1_83_29827)">
<path d="M5.17568 37.7603C7.78728 40.3886 11.169 40.4221 13.7471 37.844C15.8063 35.7849 17.7985 31.1309 19.3219 28.8039L23.3732 32.8719C24.6121 34.1274 26.1188 34.1274 27.2906 32.9221L28.7304 31.4824C29.9525 30.2436 29.9358 28.8373 28.6802 27.5817L15.371 14.2558C14.0987 13.0002 12.6757 12.9835 11.4536 14.2056L10.0139 15.6453C8.8085 16.8507 8.8085 18.3071 10.0641 19.5627L14.1154 23.6141C11.8051 25.1376 7.16787 27.1297 5.09198 29.1889C2.53059 31.767 2.54733 35.1654 5.17568 37.7603ZM9.64556 35.584C8.49041 35.584 7.56966 34.6464 7.56966 33.508C7.56966 32.3697 8.49041 31.4489 9.64556 31.4489C10.7839 31.4489 11.7047 32.3697 11.7047 33.508C11.7047 34.6464 10.7839 35.584 9.64556 35.584ZM30.6724 26.8116L37.1679 20.3161C39.0261 18.4579 38.9759 16.248 37.0842 14.3227L36.2304 13.4522C34.4894 15.7123 29.5172 18.3574 28.5629 17.4031C28.4124 17.2524 28.3955 16.9511 28.6132 16.7167C30.6388 14.6911 31.9614 12.7156 32.2628 9.50136L23.6578 0.879702C22.0674 -0.7107 19.3052 -0.191727 18.5518 2.82167C17.4971 7.10739 16.5429 9.6018 15.5049 11.661L30.6724 26.8116Z" fill="#9EFF00"/>
</g>
</g>
<defs>
<clipPath id="clip0_83_29827">
<rect width="40" height="40" fill="white" transform="translate(0.332031)"/>
</clipPath>
<clipPath id="clip1_83_29827">
<rect width="35.3453" height="40.0127" fill="white" transform="translate(3.1875)"/>
</clipPath>
</defs>
</svg>
