<svg width="41" height="40" viewBox="0 0 41 40" fill="none" xmlns="http://www.w3.org/2000/svg">
<path fill-rule="evenodd" clip-rule="evenodd" d="M14.082 11.25C14.082 7.79822 16.8803 5 20.332 5C23.7838 5 26.582 7.79822 26.582 11.25C26.582 14.7018 23.7838 17.5 20.332 17.5C16.8803 17.5 14.082 14.7018 14.082 11.25Z" fill="#9EFF00"/>
<path fill-rule="evenodd" clip-rule="evenodd" d="M26.582 16.25C26.582 13.4886 28.8206 11.25 31.582 11.25C34.3435 11.25 36.582 13.4886 36.582 16.25C36.582 19.0114 34.3435 21.25 31.582 21.25C28.8206 21.25 26.582 19.0114 26.582 16.25Z" fill="#9EFF00"/>
<path fill-rule="evenodd" clip-rule="evenodd" d="M4.08203 16.25C4.08203 13.4886 6.32061 11.25 9.08203 11.25C11.8435 11.25 14.082 13.4886 14.082 16.25C14.082 19.0114 11.8435 21.25 9.08203 21.25C6.32061 21.25 4.08203 19.0114 4.08203 16.25Z" fill="#9EFF00"/>
<path fill-rule="evenodd" clip-rule="evenodd" d="M10.8485 25.1959C12.8451 22.074 16.3459 20 20.332 20C24.3186 20 27.8198 22.0745 29.8164 25.197C31.1966 27.3557 31.7938 29.9587 31.5136 32.4965C31.4699 32.8932 31.2394 33.245 30.8933 33.4436C27.781 35.2294 24.1738 36.25 20.332 36.25C16.4902 36.25 12.883 35.2294 9.77077 33.4436C9.42468 33.245 9.19419 32.8931 9.15042 32.4965C8.87026 29.9582 9.46771 27.3548 10.8485 25.1959Z" fill="#9EFF00"/>
<path d="M8.8025 23.7561C8.78243 23.787 8.76248 23.8179 8.74266 23.8489C7.13355 26.3648 6.39716 29.3611 6.62322 32.315C5.60981 32.1611 4.62653 31.9135 3.68274 31.5811L3.49115 31.5136C3.14163 31.3905 2.89741 31.0731 2.86802 30.7037L2.8519 30.5012C2.83873 30.3357 2.83203 30.1685 2.83203 30C2.83203 26.6419 5.48044 23.9024 8.8025 23.7561Z" fill="#9EFF00"/>
<path d="M34.0414 32.3149C34.2674 29.3617 33.5314 26.366 31.9229 23.8503C31.9028 23.8188 31.8825 23.7875 31.8622 23.7562C35.1839 23.9027 37.832 26.6421 37.832 30C37.832 30.1685 37.8253 30.3357 37.8122 30.5012L37.796 30.7037C37.7667 31.0731 37.5224 31.3905 37.1729 31.5136L36.9813 31.5811C36.0377 31.9134 35.0546 32.161 34.0414 32.3149Z" fill="#9EFF00"/>
</svg>
