<svg width="41" height="40" viewBox="0 0 41 40" fill="none" xmlns="http://www.w3.org/2000/svg">
<path d="M35.668 10.625C35.668 15.1123 28.9522 18.75 20.668 18.75C12.3837 18.75 5.66797 15.1123 5.66797 10.625C5.66797 6.13769 12.3837 2.5 20.668 2.5C28.9522 2.5 35.668 6.13769 35.668 10.625Z" fill="#9EFF00"/>
<path d="M20.668 21.25C25.1433 21.25 29.3188 20.2728 32.4653 18.5685C33.6153 17.9456 34.7093 17.1739 35.6258 16.2612C35.6537 16.4638 35.668 16.6685 35.668 16.875C35.668 21.3623 28.9522 25 20.668 25C12.3837 25 5.66797 21.3623 5.66797 16.875C5.66797 16.6685 5.68219 16.4638 5.71012 16.2612C6.62668 17.1739 7.72067 17.9456 8.87066 18.5685C12.0171 20.2728 16.1927 21.25 20.668 21.25Z" fill="#9EFF00"/>
<path d="M20.668 27.5C25.1433 27.5 29.3188 26.5228 32.4653 24.8185C33.6153 24.1956 34.7093 23.4239 35.6258 22.5112C35.6537 22.7138 35.668 22.9185 35.668 23.125C35.668 27.6123 28.9522 31.25 20.668 31.25C12.3837 31.25 5.66797 27.6123 5.66797 23.125C5.66797 22.9185 5.68219 22.7138 5.71012 22.5112C6.62668 23.4239 7.72067 24.1956 8.87066 24.8185C12.0171 26.5228 16.1927 27.5 20.668 27.5Z" fill="#9EFF00"/>
<path d="M20.668 33.75C25.1433 33.75 29.3188 32.7728 32.4653 31.0685C33.6153 30.4456 34.7093 29.6739 35.6258 28.7612C35.6537 28.9638 35.668 29.1685 35.668 29.375C35.668 33.8623 28.9522 37.5 20.668 37.5C12.3837 37.5 5.66797 33.8623 5.66797 29.375C5.66797 29.1685 5.68219 28.9638 5.71012 28.7612C6.62668 29.6739 7.72067 30.4456 8.87066 31.0685C12.0171 32.7728 16.1927 33.75 20.668 33.75Z" fill="#9EFF00"/>
</svg>
