<svg width="41" height="40" viewBox="0 0 41 40" fill="none" xmlns="http://www.w3.org/2000/svg">
<path d="M2.09766 34.1182C2.09766 34.9218 2.63337 35.4408 3.43694 35.4408H36.7349C37.4715 35.4408 38.0909 34.8548 38.0909 34.1015C38.0909 33.365 37.4715 32.7622 36.7349 32.7622H5.26171C4.91016 32.7622 4.79297 32.6451 4.79297 32.2935V5.82585C4.79297 5.10599 4.19028 4.48657 3.45368 4.48657C2.70033 4.48657 2.09766 5.10599 2.09766 5.82585V34.1182ZM3.85547 23.7054L14.62 17.4776L22.3711 24.1238L36.1489 15.9207L35.0944 14.2131L22.5051 21.7131L14.7874 15.1004L3.85547 21.4118V23.7054ZM14.4023 19.7377C16.043 19.7377 17.3822 18.3984 17.3822 16.7578C17.3822 15.1171 16.043 13.7946 14.4023 13.7946C12.7617 13.7946 11.4224 15.1171 11.4224 16.7578C11.4224 18.3984 12.7617 19.7377 14.4023 19.7377ZM22.3041 25.8817C23.9448 25.8817 25.2674 24.5424 25.2674 22.9017C25.2674 21.2611 23.9448 19.9385 22.3041 19.9385C20.6635 19.9385 19.3242 21.2611 19.3242 22.9017C19.3242 24.5424 20.6635 25.8817 22.3041 25.8817ZM34.9269 18.2645C36.5675 18.2645 37.9068 16.9252 37.9068 15.2846C37.9068 13.6439 36.5675 12.3047 34.9269 12.3047C33.2862 12.3047 31.9469 13.6439 31.9469 15.2846C31.9469 16.9252 33.2862 18.2645 34.9269 18.2645Z" fill="#9EFF00"/>
</svg>
