<svg width="41" height="40" viewBox="0 0 41 40" fill="none" xmlns="http://www.w3.org/2000/svg">
<path d="M33.8706 23.5155V10.7087C33.8706 8.95085 33.1172 8.38166 31.6942 7.79572C29.7187 6.99215 23.3404 4.56469 21.365 3.9955C20.9129 3.87831 20.4274 3.74438 19.9587 3.74438C19.49 3.74438 19.0045 3.84483 18.5692 3.9955C16.577 4.68188 10.1987 6.97541 8.22322 7.79572C6.81696 8.39841 6.04688 8.95085 6.04688 10.7087V23.5155C6.04688 29.6261 9.31139 31.8861 18.837 37.2265C19.2723 37.461 19.6908 37.5614 19.9587 37.5614C20.2266 37.5614 20.6619 37.461 21.0803 37.2265C30.5893 31.8694 33.8706 29.6261 33.8706 23.5155ZM19.6071 34.4643C19.4062 34.414 19.1886 34.2968 18.9208 34.1294C11.2031 29.4253 8.7087 28.0691 8.7087 22.8961V11.2277C8.7087 10.6585 8.80915 10.4241 9.2779 10.2567C11.8728 9.36938 16.7612 7.59484 19.2891 6.59036C19.423 6.54014 19.5234 6.50666 19.6071 6.48992V34.4643Z" fill="#9EFF00"/>
</svg>
