<svg width="40" height="40" viewBox="0 0 40 40" fill="none" xmlns="http://www.w3.org/2000/svg">
<path d="M21.7174 6.51797C22.4805 6.51797 23.0611 5.93733 23.0611 5.17423C23.0611 4.42772 22.4805 3.84708 21.7174 3.84708H9.57401L12.2117 6.51797H21.7174ZM26.379 11.2625C27.1255 11.2625 27.7227 10.6653 27.7227 9.90218C27.7227 9.15566 27.1255 8.59163 26.379 8.59163H14.2024L16.8401 11.2625H26.379ZM30.941 15.9905C31.6876 15.9905 32.2683 15.3932 32.2683 14.6301C32.2683 13.8836 31.6876 13.3196 30.941 13.3196H18.8309L21.4685 15.9905H30.941ZM35.5529 18.0476H23.4593C24.4546 19.0595 24.9025 19.6733 24.9689 20.7185H35.5529C36.2994 20.7185 36.8966 20.1378 36.8966 19.3747C36.8966 18.6281 36.2994 18.0476 35.5529 18.0476ZM20.2077 34.4378L14.2522 20.5194L13.4559 21.8797L21.7174 22.3442C22.8289 22.4105 23.3598 21.216 22.5635 20.4032L6.14002 3.61483C5.41009 2.86831 4.28202 3.28305 4.28202 4.32817L4 27.686C4 28.8305 5.27738 29.2951 6.00731 28.449L11.3491 22.5432L9.80626 22.1451L15.5628 36.3788C15.795 36.9427 16.3756 37.2082 16.8899 36.976L19.7433 35.7981C20.2741 35.599 20.4566 34.9852 20.2077 34.4378Z" fill="#9EFF00"/>
</svg>
