<svg width="41" height="40" viewBox="0 0 41 40" fill="none" xmlns="http://www.w3.org/2000/svg">
<path d="M15.0453 32.8476H29.4678C32.2627 32.8476 33.6601 31.4366 33.6601 28.5873V12.1297C33.6601 9.29408 32.2627 7.86947 29.4678 7.86947H16.4834L18.7086 10.0539H29.3457C30.7566 10.0539 31.4757 10.8001 31.4757 12.1569V28.5602C31.4757 29.917 30.7566 30.6632 29.3592 30.6632H15.1538C13.7563 30.6632 13.0237 29.917 13.0237 28.5602V18.8729H10.8393V28.5873C10.8393 31.4366 12.2503 32.8476 15.0453 32.8476ZM17.1075 15.8745H27.0934C27.5682 15.8745 27.9346 15.5081 27.9346 15.0332C27.9346 14.572 27.5682 14.2056 27.0934 14.2056H17.1075C16.6055 14.2056 16.2528 14.572 16.2528 15.0332C16.2528 15.5081 16.6055 15.8745 17.1075 15.8745ZM17.1075 21.193H27.0934C27.5682 21.193 27.9346 20.8131 27.9346 20.3382C27.9346 19.8769 27.5682 19.5241 27.0934 19.5241H17.1075C16.6055 19.5241 16.2528 19.8769 16.2528 20.3382C16.2528 20.8131 16.6055 21.193 17.1075 21.193ZM17.1075 26.4979H27.0934C27.5682 26.4979 27.9346 26.1452 27.9346 25.6839C27.9346 25.2091 27.5682 24.8291 27.0934 24.8291H17.1075C16.6055 24.8291 16.2528 25.2091 16.2528 25.6839C16.2528 26.1452 16.6055 26.4979 17.1075 26.4979ZM6.91819 13.3644C6.90462 13.88 7.52873 14.0564 7.86793 13.7172L9.94379 11.6413L12.2639 17.3668C12.3724 17.6247 12.6438 17.7468 12.888 17.6518L14.2448 17.1091C14.4754 17.0005 14.5704 16.7156 14.4483 16.4579L12.0197 10.8272L14.9367 10.7051C15.4523 10.678 15.7101 10.1896 15.3437 9.7961L7.9222 2.17104C7.58301 1.83184 7.05386 2.02179 7.0403 2.5238L6.91819 13.3644Z" fill="#9EFF00"/>
</svg>
